<svg width="24" height="24" viewBox="0 0 24 24" fill="none" xmlns="http://www.w3.org/2000/svg">
<g id="settings">
<g id="Group">
<path id="Vector" d="M12.0001 9C13.6501 9 15.0001 10.35 15.0001 12C15.0001 13.65 13.6501 15 12.0001 15C10.3501 15 9.00009 13.65 9.00009 12C9.00009 10.35 10.3501 9 12.0001 9ZM12.0001 8C9.79009 8 8.00009 9.79 8.00009 12C8.00009 14.21 9.79009 16 12.0001 16C14.2101 16 16.0001 14.21 16.0001 12C16.0001 9.79 14.2101 8 12.0001 8ZM13.2201 3L13.7701 5.2L13.9001 5.71L14.4001 5.89C15.0101 6.12 15.5901 6.45 16.1201 6.87L16.5201 7.19L17.0201 7.05L19.1901 6.43L20.4101 8.54L18.7801 10.13L18.4101 10.49L18.4901 11C18.5401 11.32 18.5701 11.64 18.5701 11.98C18.5701 12.32 18.5401 12.64 18.4901 12.96L18.4101 13.47L18.7801 13.83L20.4101 15.42L19.1901 17.53L17.0201 16.91L16.5201 16.77L16.1201 17.09C15.5901 17.52 15.0101 17.85 14.4001 18.07L13.9001 18.25L13.7701 18.76L13.2201 21H10.7801L10.2301 18.8L10.1001 18.29L9.60009 18.11C9.00009 17.88 8.42009 17.55 7.88009 17.12L7.48009 16.8L6.98009 16.94L4.81009 17.56L3.60009 15.44L5.23009 13.85L5.60009 13.49L5.52009 12.98C5.47009 12.66 5.44009 12.33 5.44009 12C5.44009 11.67 5.47009 11.34 5.52009 11.02L5.60009 10.51L5.23009 10.15L3.60009 8.56L4.82009 6.45L6.99009 7.07L7.49009 7.21L7.89009 6.89C8.42009 6.45 9.00009 6.12 9.61009 5.9L10.1101 5.72L10.2401 5.21L10.7801 3H13.2201ZM14.0001 2H10.0001L9.26009 4.96C8.53009 5.23 7.86009 5.62 7.26009 6.1L4.34009 5.27L2.34009 8.73L4.53009 10.86C4.47009 11.23 4.44009 11.61 4.44009 12C4.44009 12.39 4.47009 12.77 4.53009 13.14L2.34009 15.27L4.34009 18.73L7.26009 17.9C7.86009 18.38 8.53009 18.77 9.26009 19.04L10.0001 22H14.0001L14.7401 19.04C15.4701 18.77 16.1401 18.38 16.7401 17.9L19.6601 18.73L21.6601 15.27L19.4701 13.14C19.5301 12.77 19.5601 12.39 19.5601 12C19.5601 11.61 19.5301 11.23 19.4701 10.86L21.6601 8.73L19.6601 5.27L16.7401 6.1C16.1401 5.62 15.4701 5.23 14.7401 4.96L14.0001 2Z" fill="white"/>
</g>
</g>
</svg>
