<svg width="13" height="12" viewBox="0 0 13 12" fill="none" xmlns="http://www.w3.org/2000/svg">
<g id="Group">
<path id="Vector" d="M10.3333 0.666656H9.66663H3.37996C2.66663 0.666656 2.05996 1.11332 1.91996 1.73999L1.02663 5.73999C0.846631 6.56666 1.54663 7.33332 2.48663 7.33332H5.30663L4.2933 10.6267C4.07996 11.3133 4.63996 12 5.4133 12C5.79996 12 6.1733 11.84 6.42663 11.5667L10.3333 7.33332H13V0.666656H10.3333ZM5.9333 11.1133C5.80663 11.2533 5.6133 11.3333 5.4133 11.3333C5.23996 11.3333 5.07996 11.26 4.9933 11.1333C4.94663 11.0667 4.8933 10.96 4.9333 10.82L5.94663 7.52666L6.2133 6.66666H5.30663H2.48663C2.2133 6.66666 1.9533 6.55332 1.79996 6.35999C1.71996 6.25999 1.6333 6.09332 1.67996 5.87999L2.5733 1.87999C2.63996 1.56666 2.97996 1.33332 3.37996 1.33332H9.66663V7.07332L5.9333 11.1133ZM12.3333 6.66666H10.3333V1.33332H12.3333V6.66666Z" fill="white"/>
</g>
</svg>
