<svg width="13" height="12" viewBox="0 0 13 12" fill="none" xmlns="http://www.w3.org/2000/svg">
<g id="Group">
<path id="Vector" d="M10.5133 5.33332H7.69333L8.70667 2.03999C8.92 1.35332 8.36 0.666656 7.58667 0.666656C7.2 0.666656 6.82667 0.826657 6.57333 1.09999L2.66667 5.33332H0V12H2.66667H3.33333H9.62C10.3267 12 10.94 11.5533 11.08 10.9267L11.9733 6.92666C12.1533 6.09999 11.4533 5.33332 10.5133 5.33332ZM2.66667 11.3333H0.666667V5.99999H2.66667V11.3333ZM11.32 6.77999L10.4267 10.78C10.36 11.1 10.02 11.3333 9.62 11.3333H3.33333V5.59332L7.06667 1.55332C7.19333 1.41332 7.38667 1.33332 7.58667 1.33332C7.76 1.33332 7.92 1.40666 8.00667 1.53332C8.05333 1.59999 8.10667 1.70666 8.06667 1.84666L7.05333 5.13999L6.78667 5.99999H7.68667H10.5067C10.78 5.99999 11.04 6.11332 11.1933 6.30666C11.28 6.40666 11.3667 6.57332 11.32 6.77999Z" fill="white"/>
</g>
</svg>
